<?xml version="1.0" encoding="UTF-8" standalone="no"?>
<!-- Created with Inkscape (http://www.inkscape.org/) -->

<svg
   xmlns:dc="http://purl.org/dc/elements/1.1/"
   xmlns:cc="http://creativecommons.org/ns#"
   xmlns:rdf="http://www.w3.org/1999/02/22-rdf-syntax-ns#"
   xmlns:svg="http://www.w3.org/2000/svg"
   xmlns="http://www.w3.org/2000/svg"
   xmlns:sodipodi="http://sodipodi.sourceforge.net/DTD/sodipodi-0.dtd"
   xmlns:inkscape="http://www.inkscape.org/namespaces/inkscape"
   width="1024"
   height="1024"
   viewBox="0 0 270.93333 270.93334"
   version="1.1"
   id="svg43"
   inkscape:export-filename="C:\Users\natorsc\Downloads\favicon.png"
   inkscape:export-xdpi="96"
   inkscape:export-ydpi="96"
   inkscape:version="0.92.4 (5da689c313, 2019-01-14)"
   sodipodi:docname="p4d_logo.svg">
  <defs
     id="defs37" />
  <sodipodi:namedview
     id="base"
     pagecolor="#ffffff"
     bordercolor="#666666"
     borderopacity="1.0"
     inkscape:pageopacity="0.0"
     inkscape:pageshadow="2"
     inkscape:zoom="0.49497475"
     inkscape:cx="590.92509"
     inkscape:cy="512"
     inkscape:document-units="px"
     inkscape:current-layer="layer1"
     showgrid="false"
     units="px"
     inkscape:window-width="1366"
     inkscape:window-height="705"
     inkscape:window-x="-8"
     inkscape:window-y="-8"
     inkscape:window-maximized="1" />
  <metadata
     id="metadata40">
    <rdf:RDF>
      <cc:Work
         rdf:about="">
        <dc:format>image/svg+xml</dc:format>
        <dc:type
           rdf:resource="http://purl.org/dc/dcmitype/StillImage" />
        <dc:title></dc:title>
      </cc:Work>
    </rdf:RDF>
  </metadata>
  <g
     inkscape:label="Camada 1"
     inkscape:groupmode="layer"
     id="layer1"
     transform="translate(0,-26.06665)">
    <g
       id="g3746"
       transform="translate(-4e-6,-2.45e-5)">
      <path
         style="fill:#000080;stroke-width:17.67821884"
         inkscape:connector-curvature="0"
         id="path2-3"
         d="m 23.963694,80.504723 c 3.779762,21.497347 7.559524,26.458337 7.559524,47.955727 0,13.22916 -28.348215,24.80467 -28.348215,24.80467 v 16.53645 c 0,0 28.348215,11.5755 28.348215,24.80471 0,21.49735 -3.779762,26.45834 -7.559524,47.95573 -5.669646,34.72655 15.119049,51.263 34.017856,51.263 18.898812,0 39.687502,0 39.687502,0 v -33.07294 c 0,0 -34.017861,3.30733 -34.017861,-16.5364 0,-14.88283 3.779767,-14.88283 7.559525,-47.95573 1.889879,-14.88287 -9.449404,-26.45837 -20.788686,-34.7266 11.339282,-8.26822 22.678565,-18.19011 20.788686,-33.07289 -5.669646,-33.072942 -7.559525,-33.072942 -7.559525,-47.955727 0,-19.843772 34.017861,-18.19011 34.017861,-18.19011 V 29.241674 c 0,0 -18.898811,0 -39.687502,0 -20.78869,0 -39.687502,16.536492 -34.017856,51.263049 z" />
      <path
         style="fill:#ffff00;stroke-width:17.67821884"
         inkscape:connector-curvature="0"
         id="path4-6"
         d="m 246.96963,80.504723 c -3.77975,21.497347 -7.5595,26.458337 -7.5595,47.955727 0,13.22916 28.34821,24.80467 28.34821,24.80467 v 16.53645 c 0,0 -28.34821,11.5755 -28.34821,24.80471 0,21.49735 3.77975,26.45834 7.5595,47.95573 5.66966,34.72655 -15.11904,51.263 -34.01783,51.263 -18.89884,0 -39.6875,0 -39.6875,0 v -33.07294 c 0,0 34.01783,3.30733 34.01783,-16.5364 0,-14.88283 -3.77975,-14.88283 -7.5595,-47.95573 -1.88987,-14.88287 9.44942,-26.45837 20.78866,-34.7266 -11.33924,-8.26822 -22.67853,-18.19011 -20.78866,-33.07289 3.77975,-33.072942 7.5595,-33.072942 7.5595,-47.955727 0,-19.843772 -34.01783,-18.19011 -34.01783,-18.19011 V 29.241674 c 0,0 18.89879,0 39.6875,0 20.78866,0 39.68749,16.536492 34.01783,51.263049 z" />
      <text
         id="text3729-7"
         y="235.60011"
         x="71.569786"
         style="font-style:normal;font-weight:normal;font-size:42.33333206px;line-height:1.25;font-family:sans-serif;letter-spacing:0px;word-spacing:0px;fill:#000000;fill-opacity:1;stroke:none;stroke-width:1.05833328"
         xml:space="preserve"><tspan
           style="font-style:normal;font-variant:normal;font-weight:500;font-stretch:normal;font-size:203.20001221px;font-family:Ubuntu;-inkscape-font-specification:'Ubuntu Medium';stroke-width:1.05833328"
           y="235.60011"
           x="71.569786"
           id="tspan3727-5"
           sodipodi:role="line">4</tspan></text>
    </g>
  </g>
</svg>
